<svg xmlns="http://www.w3.org/2000/svg" viewBox="0 0 910 148">
  <path d="M4.18,33.35C1.2,34.85,0,37.26,0,40.55v67.12c0,3.29,1.2,5.4,4.18,7.2l56.64,32.26a9.38,9.38,0,0,0,8.36,0l56.64-32.26c3-1.8,4.18-3.91,4.18-7.2V40.55c0-3.89-1.81-6-4.18-7.2L69.18,1.09a9.38,9.38,0,0,0-8.36,0Z" fill='#14bf96'/>
  <g fill='#fff'>
    <path d="M114.73,60.05c-26.88.14-48.64,22.71-48.64,50.55v1.18H64V110.6C64,82.76,42.2,60.19,15.27,60.05A52.06,52.06,0,0,0,15,65.37c0,21.77,13.33,40.33,32,47.45A51.24,51.24,0,0,0,65,116.05,52,52,0,0,0,83,112.82c18.66-7.12,32-25.68,32-47.45A52.06,52.06,0,0,0,114.73,60.05Z"/>
    <circle cx="65" cy="47.29" r="16" transform="translate(-14.4 59.81) rotate(-45)"/>
  </g>
  <g fill='#0a2a66'>
    <path d="M166.07,34.35A2.85,2.85,0,0,1,169,31.46h10.58a2.92,2.92,0,0,1,2.89,2.89V66.82l30.3-34.16a2.89,2.89,0,0,1,2.29-1.2h12A2.56,2.56,0,0,1,229,35.79L197.58,71.15l33.67,40.28a2.64,2.64,0,0,1-2.16,4.21H216a2.6,2.6,0,0,1-2.16-.84L182.43,76.08v36.67a2.92,2.92,0,0,1-2.89,2.89H169a2.85,2.85,0,0,1-2.89-2.89Z"/>
    <path d="M240,34.11a2.84,2.84,0,0,1,2.65-2.65h9.74a2.75,2.75,0,0,1,2.64,2.65V63.57c2.77-2.41,7.58-4.69,14.19-4.69,17.68,0,22.49,12.27,22.49,26.22V113a2.75,2.75,0,0,1-2.65,2.65h-9.74a2.67,2.67,0,0,1-2.64-2.65V85c0-7.69-3.49-12.38-10.1-12.38s-10.11,4.09-11.55,9.74V113c0,1.57-.72,2.65-2.88,2.65h-9.5A2.75,2.75,0,0,1,240,113Z"/>
    <path d="M322.28,80.53A40.83,40.83,0,0,1,333,82.09c.24-7.1-1.8-10.46-7.69-10.46a69.78,69.78,0,0,0-15.64,2c-1.8.6-2.88-.72-3.12-2.4L305.33,65a2.52,2.52,0,0,1,1.8-3.36,69.71,69.71,0,0,1,19-2.77c17.32,0,20.92,9,20.92,24.17V113a2.67,2.67,0,0,1-2.64,2.65h-4.09c-1,0-1.68-.36-2.41-1.92L336.35,110a24.36,24.36,0,0,1-17.44,7c-11.06,0-18.76-7.09-18.76-19C300.15,88.1,308.21,80.53,322.28,80.53Zm.36,25.25c4.93,0,9.26-3.85,10-5.89V91.71A22.19,22.19,0,0,0,324.45,90c-6.38,0-9.87,3-9.87,7.93C314.58,102.65,317.47,105.78,322.64,105.78Z"/>
    <path d="M359.56,62.73a2.66,2.66,0,0,1,2.64-2.65h4.57a2.13,2.13,0,0,1,2.29,1.69l2,5.17A22.43,22.43,0,0,1,389,58.88c17.68,0,22.25,11.9,22.25,25.37V113a2.76,2.76,0,0,1-2.65,2.65h-9.74a2.67,2.67,0,0,1-2.64-2.65V84.25c0-7.21-2.89-11.66-9.62-11.66a12.23,12.23,0,0,0-12,8.66V113c0,2.05-.84,2.65-3.49,2.65h-8.9a2.75,2.75,0,0,1-2.64-2.65Z"/>
    <path d="M439.69,112.51l37.4-80.93a2.16,2.16,0,0,1,2-1.32h1.21a2,2,0,0,1,2,1.32l37,80.93a2.12,2.12,0,0,1-2,3.13H506.91c-1.8,0-2.64-.72-3.48-2.41l-5.9-13H461.58l-5.89,13a3.63,3.63,0,0,1-3.49,2.41H441.74A2.13,2.13,0,0,1,439.69,112.51ZM491.64,86.9l-12-26.46h-.36L467.47,86.9Z"/>
    <path d="M550.37,58.88c8.66,0,15.39,3.73,20.68,9.38,1.2,1.2.6,2.77-.6,4l-5.05,5.53c-1.2,1.32-2.52.72-3.61-.36-2.64-2.53-5.89-4.81-11.06-4.81-8.66,0-14.67,6.73-14.67,15.27s5.89,15.39,14.55,15.39c6.13,0,9.38-3.36,11.78-6.13a2.61,2.61,0,0,1,3.49-.36l5.41,4.57c1.33,1.2,1.93,2.52,1,4-4.69,7.33-12.14,11.66-22,11.66-16.24,0-29.34-12.38-29.34-29.1C520.91,71.51,533.89,58.88,550.37,58.88Z"/>
    <path d="M601.82,80.53a40.83,40.83,0,0,1,10.7,1.56c.24-7.1-1.8-10.46-7.69-10.46a69.78,69.78,0,0,0-15.64,2c-1.8.6-2.88-.72-3.12-2.4L584.86,65a2.53,2.53,0,0,1,1.81-3.36,69.71,69.71,0,0,1,19-2.77c17.32,0,20.92,9,20.92,24.17V113a2.67,2.67,0,0,1-2.64,2.65h-4.09c-1,0-1.69-.36-2.41-1.92L615.89,110a24.36,24.36,0,0,1-17.44,7c-11.06,0-18.76-7.09-18.76-19C579.69,88.1,587.75,80.53,601.82,80.53Zm.36,25.25c4.93,0,9.26-3.85,10-5.89V91.71A22.21,22.21,0,0,0,604,90c-6.37,0-9.86,3-9.86,7.93C594.12,102.65,597,105.78,602.18,105.78Z"/>
    <path d="M663.56,58.88a41.4,41.4,0,0,1,13.35,2.28v-27a2.84,2.84,0,0,1,2.65-2.65h9.74a2.75,2.75,0,0,1,2.64,2.65V113a2.67,2.67,0,0,1-2.64,2.65h-4.45c-1.33,0-2.17-1.08-2.65-2.65l-1.44-4.33A24,24,0,0,1,662.6,117C647.45,117,636,104.7,636,87.86,636,71.63,647,58.88,663.56,58.88Zm13.35,16.84a22,22,0,0,0-11.54-3.13c-9.14,0-13.83,7.45-13.83,15.27s4.45,15.39,13.1,15.39c7.22,0,11.07-4.57,12.27-7.69Z"/>
    <path d="M729.58,58.88c14.43,0,25.49,10.7,25.49,25.73,0,.85-.12,2.77-.24,3.61a2.83,2.83,0,0,1-2.64,2.53h-35.6c.12,6.85,5.77,12.86,13.83,12.86a18.46,18.46,0,0,0,11.91-4.08c1.32-1.09,2.76-1.21,3.6,0l4.69,6.25a2.33,2.33,0,0,1-.24,3.61A31.4,31.4,0,0,1,729.7,117c-16.6,0-28.14-13.23-28.14-29.1C701.56,72.23,713.1,58.88,729.58,58.88Zm10.34,22c-.24-5.42-4.57-9.62-10.7-9.62-6.74,0-11.06,4.08-11.79,9.62Z"/>
    <path d="M764,62.73a2.66,2.66,0,0,1,2.64-2.65h4.33a2.15,2.15,0,0,1,2.29,1.57l2,5.29a21.13,21.13,0,0,1,17-8.06c8.06,0,12,2.89,16.59,8.42,2.41-2.53,7.94-8.42,17.92-8.42,17.8,0,22,11.3,22,25.73V113a2.7,2.7,0,0,1-2.77,2.65h-9.62a2.67,2.67,0,0,1-2.64-2.65V84.25c0-7.21-2.65-11.66-9.62-11.66-8.06,0-10.35,5.77-10.35,5.77s.24,2.77.24,5.29V113a2.75,2.75,0,0,1-2.64,2.65h-9.86a2.59,2.59,0,0,1-2.65-2.65V84.25c0-7.21-2-11.66-9.14-11.66-6.85,0-9.38,4.81-10.7,8.66V113a2.75,2.75,0,0,1-2.64,2.65h-9.75A2.75,2.75,0,0,1,764,113Z"/>
    <path d="M854.52,63.69c-.72-1.92.24-3.61,2.4-3.61h11.55a2.15,2.15,0,0,1,2.28,1.57l10,33.19H881L893.6,61.65c.84-1.45,1.8-1.57,3.49-1.57h10.22a2.44,2.44,0,0,1,2.4,3.61L877,142.58a2.83,2.83,0,0,1-2.41,1.68H863.06a2.51,2.51,0,0,1-2.41-3.73l11.18-28.14Z"/>
  </g>
</svg>